<?xml version="1.0" encoding="utf-8"?><svg viewBox="0 0 78 32" xmlns="http://www.w3.org/2000/svg" xmlns:xlink="http://www.w3.org/1999/xlink"><style>:root>svg{display:none}:root>svg:target{display:block}</style><svg fill="none" viewBox="0 0 33 32" id="icon_call" xmlns="http://www.w3.org/2000/svg"><rect x=".43" width="32" height="32" rx="3" fill="#fff" fill-opacity=".4"/><path d="M22.758 18.716c-.904-.504-1.824-.19-2.204.305l-.796.992c-.404.504-1.16.437-1.16.437-5.512-1.405-6.986-6.962-6.986-6.962s-.068-.753.437-1.156l.995-.793c.497-.38.812-1.297.305-2.197-1.353-2.356-2.262-3.169-2.725-3.792-.486-.587-1.218-.72-1.979-.323H8.63c-1.582.892-3.314 2.56-2.76 4.278.946 1.812 2.683 7.586 8.221 11.95 2.603 2.063 6.721 4.177 8.47 4.665l.016.025c1.723.553 3.399-1.18 4.293-2.75v-.013c.397-.76.265-1.479-.315-1.949-1.027-.966-2.578-2.032-3.796-2.717z" fill="#30203D"/></svg><svg fill="none" viewBox="0 0 33 32" id="icon_facebook" xmlns="http://www.w3.org/2000/svg"><rect x=".43" width="32" height="32" rx="3" fill="#fff" fill-opacity=".4"/><path d="M20.31 8.014h2.207V4.17c-.38-.052-1.69-.17-3.215-.17-6.981 0-5.082 7.906-5.36 9.065H10.43v4.296h3.511v10.81h4.305V17.363h3.369l.535-4.296h-3.905c.19-2.845-.767-5.052 2.066-5.052z" fill="#3B5999"/></svg><svg fill="none" viewBox="0 0 33 32" id="icon_instagram" xmlns="http://www.w3.org/2000/svg"><rect x=".43" width="32" height="32" rx="3" fill="#fff" fill-opacity=".4"/><path d="M21.28 4h-9.7c-3.942 0-7.15 3.207-7.15 7.15v9.7c0 3.943 3.208 7.15 7.15 7.15h9.7c3.943 0 7.15-3.207 7.15-7.15v-9.7c0-3.943-3.207-7.15-7.15-7.15zm4.736 16.85a4.735 4.735 0 01-4.735 4.736h-9.7a4.735 4.735 0 01-4.736-4.736v-9.7a4.735 4.735 0 014.735-4.736h9.7a4.735 4.735 0 014.736 4.736v9.7z" fill="url(#cpaint0_linear)"/><path d="M16.43 9.793A6.214 6.214 0 0010.223 16a6.214 6.214 0 006.207 6.207A6.214 6.214 0 0022.638 16a6.214 6.214 0 00-6.208-6.207zm0 10a3.793 3.793 0 110-7.586 3.793 3.793 0 010 7.586z" fill="url(#cpaint1_linear)"/><path d="M22.65 11.327a1.487 1.487 0 100-2.975 1.487 1.487 0 000 2.975z" fill="url(#cpaint2_linear)"/><defs><linearGradient id="cpaint0_linear" x1="16.43" y1="27.93" x2="16.43" y2="4.186" gradientUnits="userSpaceOnUse"><stop stop-color="#E09B3D"/><stop offset=".3" stop-color="#C74C4D"/><stop offset=".6" stop-color="#C21975"/><stop offset="1" stop-color="#7024C4"/></linearGradient><linearGradient id="cpaint1_linear" x1="16.43" y1="27.93" x2="16.43" y2="4.186" gradientUnits="userSpaceOnUse"><stop stop-color="#E09B3D"/><stop offset=".3" stop-color="#C74C4D"/><stop offset=".6" stop-color="#C21975"/><stop offset="1" stop-color="#7024C4"/></linearGradient><linearGradient id="cpaint2_linear" x1="22.65" y1="27.93" x2="22.65" y2="4.186" gradientUnits="userSpaceOnUse"><stop stop-color="#E09B3D"/><stop offset=".3" stop-color="#C74C4D"/><stop offset=".6" stop-color="#C21975"/><stop offset="1" stop-color="#7024C4"/></linearGradient></defs></svg><svg fill="none" viewBox="0 0 78 21" id="icon_intro_call" xmlns="http://www.w3.org/2000/svg"><path d="M16.103 13.931c-.676-.552-1.487-.425-1.876-.068l-.807.71c-.41.362-1.027.195-1.027.195-4.374-1.979-4.782-6.83-4.782-6.83s.055-.638.533-.9l.944-.517c.47-.244.865-.963.577-1.788C8.887 2.57 8.25 1.76 7.958 1.171 7.64.61 7.052.392 6.361.61L6.348.61c-1.446.512-3.13 1.65-2.923 3.165.52 1.65 1.114 6.72 5.074 11.172 1.859 2.102 4.97 4.47 6.351 5.133l.01.023c1.35.714 2.997-.487 3.971-1.666l.002-.01c.442-.575.438-1.194.026-1.672-.712-.956-1.844-2.072-2.756-2.823z" fill="#fff"/><path d="M44.229 13.931c-.677-.552-1.487-.425-1.876-.068l-.807.71c-.41.362-1.028.195-1.028.195-4.374-1.979-4.781-6.83-4.781-6.83s.054-.638.533-.9l.943-.517c.47-.244.866-.963.577-1.788-.778-2.163-1.413-2.974-1.706-3.562-.318-.561-.907-.779-1.597-.56L34.473.61c-1.445.512-3.13 1.65-2.922 3.165.519 1.65 1.113 6.72 5.073 11.172 1.86 2.102 4.97 4.47 6.352 5.133l.01.023c1.35.714 2.997-.487 3.971-1.666l.002-.01c.441-.575.438-1.194.025-1.672-.712-.956-1.844-2.072-2.755-2.823z" fill="#F8840D"/><path d="M72.229 13.931c-.677-.552-1.487-.425-1.876-.068l-.807.71c-.41.362-1.028.195-1.028.195-4.374-1.979-4.781-6.83-4.781-6.83s.054-.638.533-.9l.943-.517c.47-.244.866-.963.577-1.788-.778-2.163-1.413-2.974-1.706-3.562-.318-.561-.907-.779-1.597-.56L62.473.61c-1.445.512-3.13 1.65-2.922 3.165.519 1.65 1.113 6.72 5.073 11.172 1.86 2.102 4.97 4.47 6.352 5.133l.01.023c1.35.714 2.997-.487 3.971-1.666l.002-.01c.441-.575.438-1.194.025-1.672-.712-.956-1.844-2.072-2.755-2.823z" fill="#fff" fill-opacity=".2"/></svg><svg fill="none" viewBox="0 0 33 32" id="icon_telegram" xmlns="http://www.w3.org/2000/svg"><rect x=".43" width="32" height="32" rx="3" fill="#fff" fill-opacity=".4"/><path d="M14.063 18.863L13.7 23.89c.521 0 .746-.22 1.017-.483l2.441-2.291 5.058 3.637c.928.508 1.582.24 1.832-.838l3.32-15.275h.001c.294-1.347-.496-1.874-1.4-1.543L6.452 14.432c-1.332.507-1.312 1.236-.226 1.566l4.99 1.524 11.589-7.12c.545-.354 1.041-.158.633.197l-9.375 8.264z" fill="#039BE5"/></svg><svg fill="none" viewBox="0 0 33 32" id="icon_viber" xmlns="http://www.w3.org/2000/svg"><rect x=".43" width="32" height="32" rx="3" fill="#fff" fill-opacity=".4"/><path d="M26.226 18.223c.651-5.479-.312-8.938-2.05-10.503-2.805-2.672-12.28-3.068-15.636.12-1.507 1.559-2.038 3.847-2.096 6.68-.059 2.833-.128 8.141 4.819 9.581h.004l-.004 2.2s-.034.89.535 1.07c.651.21.946-.203 2.97-2.621 3.386.293 5.986-.38 6.281-.478.684-.229 4.552-.74 5.177-6.049zm-11.124 4.98s-2.143 2.671-2.81 3.365c-.217.225-.457.204-.453-.243 0-.294.016-3.651.016-3.651-4.193-1.202-3.946-5.722-3.9-8.086.045-2.366.478-4.303 1.754-5.608 2.945-2.76 11.251-2.143 13.367-.154 2.588 2.293 1.667 8.773 1.672 8.994-.532 4.431-3.666 4.712-4.243 4.904-.246.082-2.532.67-5.403.478z" fill="#8E24AA"/><path d="M16.287 9.5c-.35 0-.35.545 0 .55 2.716.02 4.952 1.913 4.977 5.385 0 .366.536.362.531-.005-.03-3.74-2.472-5.91-5.508-5.93z" fill="#8E24AA"/><path d="M19.859 14.86c-.008.361.527.378.532.012.044-2.063-1.227-3.762-3.617-3.941-.35-.025-.387.525-.038.55 2.073.157 3.165 1.572 3.123 3.378zM19.286 17.206c-.449-.26-.906-.098-1.095.157l-.396.512c-.2.26-.576.226-.576.226-2.74-.725-3.473-3.592-3.473-3.592s-.033-.388.218-.597l.494-.409c.247-.196.404-.669.152-1.133-.673-1.216-1.125-1.635-1.355-1.957-.241-.302-.605-.37-.983-.166h-.008c-.787.46-1.648 1.321-1.372 2.207.47.935 1.333 3.914 4.086 6.165 1.294 1.064 3.341 2.155 4.21 2.407l.008.013c.857.285 1.69-.61 2.134-1.42v-.006c.197-.391.132-.762-.156-1.005-.511-.498-1.282-1.048-1.888-1.402z" fill="#8E24AA"/><path d="M17.148 12.96c.874.052 1.297.508 1.343 1.445.016.367.548.341.532-.025-.058-1.224-.697-1.906-1.846-1.97-.35-.02-.383.53-.029.55z" fill="#8E24AA"/></svg><svg fill="none" viewBox="0 0 33 32" id="icon_vk" xmlns="http://www.w3.org/2000/svg"><rect x=".43" width="32" height="32" rx="3" fill="#fff" fill-opacity=".4"/><path d="M24.488 17.085c-.39-.493-.279-.713 0-1.154.005-.005 3.231-4.462 3.563-5.974l.002-.001c.166-.551 0-.956-.798-.956h-2.643c-.673 0-.983.347-1.15.736 0 0-1.345 3.221-3.248 5.309-.615.603-.899.797-1.234.797-.165 0-.422-.194-.422-.745V9.956c0-.66-.189-.956-.745-.956h-4.156c-.422 0-.673.308-.673.595 0 .627.952.77 1.05 2.533v3.824c0 .838-.151.993-.489.993-.898 0-3.079-3.235-4.37-6.936-.262-.718-.517-1.008-1.194-1.008H5.337c-.755 0-.907.347-.907.736 0 .687.899 4.102 4.178 8.615 2.186 3.08 5.264 4.748 8.064 4.748 1.682 0 1.888-.37 1.888-1.008 0-2.943-.152-3.22.69-3.22.392 0 1.064.193 2.636 1.678 1.795 1.762 2.09 2.55 3.096 2.55h2.642c.754 0 1.135-.37.916-1.102-.503-1.538-3.899-4.701-4.052-4.913z" fill="#326CB0"/></svg><svg fill="none" viewBox="0 0 33 32" id="icon_whatsapp" xmlns="http://www.w3.org/2000/svg"><rect x=".43" width="32" height="32" rx="3" fill="#fff" fill-opacity=".4"/><path d="M16.808 5.013c-5.81.276-10.395 5.115-10.377 10.932a10.863 10.863 0 001.187 4.921L6.46 26.49a.425.425 0 00.514.5l5.51-1.306a10.857 10.857 0 004.688 1.138c5.939.09 10.89-4.625 11.075-10.561.199-6.363-5.053-11.551-11.439-11.247zm6.575 16.94a8.487 8.487 0 01-6.041 2.502c-1.336 0-2.616-.3-3.803-.891l-.767-.383-3.378.8.71-3.451-.377-.74a8.448 8.448 0 01-.929-3.879c0-2.282.889-4.427 2.503-6.041a8.559 8.559 0 016.04-2.502c2.283 0 4.428.888 6.042 2.502a8.488 8.488 0 012.502 6.04 8.559 8.559 0 01-2.502 6.042z" fill="#7AD06D"/><path d="M22.637 18.277l-2.113-.606a.788.788 0 00-.78.205l-.517.527a.77.77 0 01-.837.176c-1-.404-3.103-2.274-3.64-3.21a.77.77 0 01.061-.853l.451-.584a.788.788 0 00.098-.8l-.89-2.011a.788.788 0 00-1.23-.282c-.59.499-1.29 1.257-1.375 2.097-.15 1.48.485 3.348 2.886 5.589 2.775 2.59 4.997 2.931 6.443 2.581.82-.199 1.476-.995 1.89-1.648a.788.788 0 00-.447-1.18z" fill="#7AD06D"/></svg></svg>